<?xml version="1.0" encoding="UTF-8"?>


  </symbol>

            <svg xmlns="http://www.w3.org/2000/svg" xmlns:xlink="http://www.w3.org/1999/xlink" width="61" height="61" viewBox="0 0 61 61" fill="none" xmlns="http://www.w3.org/2000/svg">
               <symbol id="Truc" height="24px" viewBox="0 -960 960 960" width="24px" fill="">
              <circle cx="30.5" cy="30.5" r="30" fill="#F5F5F7" />
              <mask id="mask0_719_10612" style="mask-type:alpha" maskUnits="userSpaceOnUse" x="10" y="10" width="41"
                height="41">
                <rect x="10.582" y="10.5" width="40" height="40" fill="#D9D9D9" />
              </mask>
              <g mask="url(#mask0_719_10612)">
                <path
                  d="M30.582 48.0001C28.582 46.1112 26.2904 44.6667 23.707 43.6667C21.1237 42.6667 18.4154 42.1667 15.582 42.1667V23.8334C18.3876 23.8334 21.082 24.3404 23.6654 25.3542C26.2487 26.3681 28.5543 27.8334 30.582 29.7501C32.6098 27.8334 34.9154 26.3681 37.4987 25.3542C40.082 24.3404 42.7765 23.8334 45.582 23.8334V42.1667C42.7209 42.1667 40.0056 42.6667 37.4362 43.6667C34.8668 44.6667 32.582 46.1112 30.582 48.0001ZM30.582 43.6667C32.332 42.3612 34.1931 41.3195 36.1654 40.5417C38.1376 39.764 40.1654 39.2501 42.2487 39.0001V27.5001C40.2209 27.8612 38.2279 28.5904 36.2695 29.6876C34.3112 30.7848 32.4154 32.2501 30.582 34.0834C28.7487 32.2501 26.8529 30.7848 24.8945 29.6876C22.9362 28.5904 20.9431 27.8612 18.9154 27.5001V39.0001C20.9987 39.2501 23.0265 39.764 24.9987 40.5417C26.9709 41.3195 28.832 42.3612 30.582 43.6667ZM30.582 25.5001C28.7487 25.5001 27.1793 24.8473 25.8737 23.5417C24.5681 22.2362 23.9154 20.6667 23.9154 18.8334C23.9154 17.0001 24.5681 15.4306 25.8737 14.1251C27.1793 12.8195 28.7487 12.1667 30.582 12.1667C32.4154 12.1667 33.9848 12.8195 35.2904 14.1251C36.5959 15.4306 37.2487 17.0001 37.2487 18.8334C37.2487 20.6667 36.5959 22.2362 35.2904 23.5417C33.9848 24.8473 32.4154 25.5001 30.582 25.5001ZM30.582 22.1667C31.4987 22.1667 32.2834 21.8404 32.9362 21.1876C33.589 20.5348 33.9154 19.7501 33.9154 18.8334C33.9154 17.9167 33.589 17.132 32.9362 16.4792C32.2834 15.8265 31.4987 15.5001 30.582 15.5001C29.6654 15.5001 28.8806 15.8265 28.2279 16.4792C27.5751 17.132 27.2487 17.9167 27.2487 18.8334C27.2487 19.7501 27.5751 20.5348 28.2279 21.1876C28.8806 21.8404 29.6654 22.1667 30.582 22.1667Z"
                  fill="#750849" />
              </g>
              </symbol>
            </svg>
