<?xml version="1.0" encoding="UTF-8"?>

<svg xmlns="http://www.w3.org/2000/svg" xmlns:xlink="http://www.w3.org/1999/xlink" width="0"
  height="0">

  <symbol id="AlmaRequest" height="24px" viewBox="0 -960 960 960" width="24px" fill="">

    <path
    d="M509-269q-29-29-29-71t29-71q29-29 71-29t71 29q29 29 29 71t-29 71q-29 29-71 29t-71-29ZM200-80q-33 0-56.5-23.5T120-160v-560q0-33 23.5-56.5T200-800h40v-80h80v80h320v-80h80v80h40q33 0 56.5 23.5T840-720v560q0 33-23.5 56.5T760-80H200Zm0-80h560v-400H200v400Zm0-480h560v-80H200v80Zm0 0v-80 80Z" />

  </symbol>

  <symbol id="AlmaDigitization" height="24px" viewBox="0 -960 960 960" width="24px" fill="">

    <path d="M80-720v-200h200v80H160v120H80Zm720 0v-120H680v-80h200v200h-80ZM80-40v-200h80v120h120v80H80Zm600 0v-80h120v-120h80v200H680ZM280-240h400v-480H280v480Zm0 80q-33 0-56.5-23.5T200-240v-480q0-33 23.5-56.5T280-800h400q33 0 56.5 23.5T760-720v480q0 33-23.5 56.5T680-160H280Zm80-400h240v-80H360v80Zm0 120h240v-80H360v80Zm0 120h240v-80H360v80Zm-80 80v-480 480Z"/>

  </symbol>

</svg>